<svg xmlns="http://www.w3.org/2000/svg" width="375" viewBox="0 0 375 375" height="375" version="1.0"><defs><clipPath id="a"><path d="M 55.078125 135 L 263 135 L 263 232 L 55.078125 232 Z M 55.078125 135"/></clipPath><clipPath id="b"><path d="M 55.078125 182 L 319.828125 182 L 319.828125 306 L 55.078125 306 Z M 55.078125 182"/></clipPath></defs><g clip-path="url(#a)"><path fill="#B71E24" d="M 261.0625 176.796875 C 261.503906 176.5625 261.953125 176.328125 262.382812 176.085938 C 243.554688 182.398438 217.410156 186.3125 188.5 186.3125 C 131.15625 186.3125 84.667969 170.921875 84.667969 151.933594 C 84.667969 146.042969 89.144531 140.5 97.027344 135.65625 C 83.988281 135.65625 55.0625 140.335938 55.0625 157.304688 C 55.0625 173.488281 55.0625 222.035156 55.0625 222.035156 C 55.0625 222.035156 61.726562 193.792969 76.53125 194.195312 C 91.332031 194.589844 75.097656 236.269531 106.128906 231.363281 C 126.960938 228.070312 125.648438 203.523438 152.0625 205.019531 C 168.628906 205.960938 176.023438 211.8125 190.007812 211.8125 C 201.925781 211.8125 215.898438 205.488281 225.910156 200.082031 C 239.609375 192.6875 254.867188 183.445312 262.382812 176.085938 C 262.382812 176.085938 261.945312 176.347656 261.0625 176.796875"/></g><g clip-path="url(#b)"><path fill="#F6B866" d="M 56.746094 235.414062 C 56.179688 235.113281 55.609375 234.8125 55.0625 234.507812 C 79.101562 242.566406 112.484375 247.5625 149.398438 247.5625 C 222.617188 247.5625 281.972656 227.910156 281.972656 203.667969 C 281.972656 196.148438 276.257812 189.070312 266.191406 182.882812 C 282.839844 182.882812 319.769531 188.859375 319.769531 210.527344 C 319.769531 231.1875 319.769531 293.171875 319.769531 293.171875 C 319.769531 293.171875 311.265625 257.117188 292.363281 257.625 C 273.46875 258.132812 294.191406 311.351562 254.566406 305.085938 C 227.972656 300.882812 229.644531 269.539062 195.921875 271.449219 C 174.773438 272.648438 165.328125 280.125 147.476562 280.125 C 132.257812 280.125 114.414062 272.046875 101.628906 265.144531 C 84.144531 255.703125 64.65625 243.898438 55.0625 234.507812 C 55.0625 234.507812 55.621094 234.839844 56.746094 235.414062"/></g><path fill="#F6B866" d="M 104.53125 134.769531 C 104.191406 134.585938 103.847656 134.40625 103.519531 134.226562 C 117.945312 139.0625 137.980469 142.0625 160.132812 142.0625 C 204.074219 142.0625 239.699219 130.265625 239.699219 115.71875 C 239.699219 111.203125 236.265625 106.957031 230.226562 103.246094 C 240.21875 103.246094 262.382812 106.828125 262.382812 119.832031 C 262.382812 132.234375 262.382812 169.433594 262.382812 169.433594 C 262.382812 169.433594 257.273438 147.792969 245.933594 148.101562 C 234.59375 148.40625 247.03125 180.34375 223.25 176.582031 C 207.285156 174.058594 208.292969 155.25 188.054688 156.398438 C 175.363281 157.117188 169.695312 161.601562 158.980469 161.601562 C 149.84375 161.601562 139.140625 156.753906 131.464844 152.609375 C 120.972656 146.945312 109.277344 139.863281 103.519531 134.226562 C 103.519531 134.226562 103.855469 134.425781 104.53125 134.769531"/><path fill="#B71E24" d="M 181.089844 80.699219 C 195.210938 83.132812 204.859375 88.019531 204.859375 93.652344 C 204.859375 97.878906 189.382812 108.234375 160.46875 108.234375 C 127.691406 108.234375 116.082031 97.878906 116.082031 93.652344 C 116.082031 88.019531 125.726562 83.132812 139.84375 80.699219 C 119.015625 82.335938 103.519531 85.214844 103.519531 95.929688 L 103.519531 127.925781 C 103.519531 127.925781 109.949219 112.941406 127.5625 118.375 C 143.9375 123.421875 147.039062 139.378906 160.46875 136.886719 C 173.894531 139.378906 177 123.421875 193.375 118.375 C 210.992188 112.941406 217.414062 127.925781 217.414062 127.925781 L 217.414062 95.929688 C 217.414062 85.214844 201.917969 82.335938 181.089844 80.699219"/><path fill="#ED1C24" d="M 143.554688 83.894531 C 143.554688 89.171875 148.9375 93.449219 155.574219 93.449219 C 162.207031 93.449219 167.589844 89.171875 167.589844 83.894531 C 167.589844 78.617188 162.207031 74.335938 155.574219 74.335938 C 148.9375 74.335938 143.554688 78.617188 143.554688 83.894531"/><path fill="#B71E24" d="M 165.363281 72.914062 C 163.835938 72.914062 162.378906 73.152344 161.035156 73.566406 C 165.886719 75.304688 169.292969 79.277344 169.292969 83.894531 C 169.292969 87.085938 167.664062 89.964844 165.0625 92.019531 C 165.160156 92.019531 165.261719 92.03125 165.363281 92.03125 C 172 92.03125 177.382812 87.753906 177.382812 82.476562 C 177.382812 77.195312 172 72.914062 165.363281 72.914062"/><path fill="#351F17" d="M 166.417969 72.402344 C 167.441406 69.851562 169.472656 67.621094 170.753906 66.675781 C 171.304688 66.273438 171.546875 65.574219 171.367188 64.914062 C 171.097656 63.894531 168.691406 63.882812 168.097656 64.753906 C 166.792969 66.675781 164.976562 69.667969 163.75 72.464844 C 164.28125 72.394531 164.816406 72.347656 165.363281 72.347656 C 165.71875 72.347656 166.066406 72.371094 166.417969 72.402344"/><path fill="#351F17" d="M 155.574219 73.769531 C 155.214844 73.769531 154.867188 73.792969 154.519531 73.820312 C 153.496094 71.273438 151.46875 69.042969 150.179688 68.101562 C 149.632812 67.695312 149.390625 66.996094 149.566406 66.335938 C 149.839844 65.316406 152.25 65.300781 152.84375 66.175781 C 154.144531 68.09375 155.957031 71.085938 157.183594 73.890625 C 156.65625 73.816406 156.121094 73.769531 155.574219 73.769531"/></svg>